<svg width="14" height="12" viewBox="0 0 14 12" fill="none" xmlns="http://www.w3.org/2000/svg">
<path d="M7.94604 11.1705L7.33901 11.7775C7.08198 12.0346 6.66635 12.0346 6.41205 11.7775L1.09643 6.46465C0.839398 6.20762 0.839398 5.79199 1.09643 5.5377L6.41205 0.22207C6.66909 -0.0349609 7.08471 -0.0349609 7.33901 0.22207L7.94604 0.829102C8.2058 1.08887 8.20034 1.5127 7.9351 1.76699L4.64018 4.90605H12.4988C12.8624 4.90605 13.155 5.19863 13.155 5.5623V6.4373C13.155 6.80098 12.8624 7.09355 12.4988 7.09355H4.64018L7.9351 10.2326C8.20307 10.4869 8.20854 10.9107 7.94604 11.1705Z" fill="#231F20"/>
</svg>
