<svg width="15" height="10" viewBox="0 0 15 10" fill="none" xmlns="http://www.w3.org/2000/svg">
<g clip-path="url(#clip0_1_398)">
<path d="M11.3775 4.375H10.9088V2.96875C10.9088 1.33203 9.57672 0 7.94 0C6.30328 0 4.97125 1.33203 4.97125 2.96875V4.375H4.5025C3.98492 4.375 3.565 4.79492 3.565 5.3125V9.0625C3.565 9.58008 3.98492 10 4.5025 10H11.3775C11.8951 10 12.315 9.58008 12.315 9.0625V5.3125C12.315 4.79492 11.8951 4.375 11.3775 4.375ZM9.34625 4.375H6.53375V2.96875C6.53375 2.19336 7.16461 1.5625 7.94 1.5625C8.71539 1.5625 9.34625 2.19336 9.34625 2.96875V4.375Z" fill="#231F20"/>
</g>
<defs>
<clipPath id="clip0_1_398">
<rect width="14" height="10" fill="white" transform="translate(0.940002)"/>
</clipPath>
</defs>
</svg>
