<svg width="17" height="16" viewBox="0 0 17 16" fill="none" xmlns="http://www.w3.org/2000/svg">
<g opacity="0.7">
<path d="M16.4413 13.8344L13.3257 10.7188C13.185 10.5781 12.9944 10.5 12.7944 10.5H12.285C13.1475 9.39688 13.66 8.00937 13.66 6.5C13.66 2.90937 10.7507 0 7.16003 0C3.56941 0 0.660034 2.90937 0.660034 6.5C0.660034 10.0906 3.56941 13 7.16003 13C8.66941 13 10.0569 12.4875 11.16 11.625V12.1344C11.16 12.3344 11.2382 12.525 11.3788 12.6656L14.4944 15.7812C14.7882 16.075 15.2632 16.075 15.5538 15.7812L16.4382 14.8969C16.7319 14.6031 16.7319 14.1281 16.4413 13.8344ZM7.16003 10.5C4.95066 10.5 3.16003 8.7125 3.16003 6.5C3.16003 4.29063 4.94753 2.5 7.16003 2.5C9.36941 2.5 11.16 4.2875 11.16 6.5C11.16 8.70938 9.37253 10.5 7.16003 10.5Z" fill="white"/>
</g>
</svg>
